<?xml version="1.0" encoding="utf-8"?>
<!-- Generator: Adobe Illustrator 18.0.0, SVG Export Plug-In . SVG Version: 6.00 Build 0)  -->
<!DOCTYPE svg PUBLIC "-//W3C//DTD SVG 1.1//EN" "http://www.w3.org/Graphics/SVG/1.1/DTD/svg11.dtd">
<svg version="1.1" id="Layer_1" xmlns="http://www.w3.org/2000/svg" xmlns:xlink="http://www.w3.org/1999/xlink" x="0px" y="0px"
	 viewBox="0 0 390.8 109.4" enable-background="new 0 0 390.8 109.4" xml:space="preserve">
<g>
	<path d="M144.5,0.6h25.1c7.6,0,14,6.1,14,13.6v19.5c0,10.3-8,18.4-18.4,18.4h-20.7v-6.6l4.4-0.7V8l-4.4-0.7V0.6z M157.7,8.7v35.4
		h6.6c5.6,0,10.3-4.6,10.3-10.3V14.3c0-3.1-2.9-5.5-5.9-5.5H157.7z"/>
	<path d="M201.3,44.9l4.4,0.7v6.6H188v-6.6l4.4-0.7V8L188,7.3V0.6h17.7v6.6L201.3,8V44.9z"/>
	<path d="M224.1,20.5h20.7v24.3l4.4,0.7v6.6h-20.7c-10.4,0-18.4-8.1-18.4-18.4V14.3c0-7.5,6.1-13.6,13.7-13.6h19.5v12.5h-6.6
		l-0.7-4.4h-11.4c-3,0-5.5,2.4-5.5,5.5v19.5c0,5.7,4.6,10.3,10.3,10.3h6.6V28.7h-11.8V20.5z"/>
	<path d="M265.4,44.9l4.4,0.7v6.6h-17.7v-6.6l4.4-0.7V8l-4.4-0.7V0.6h17.7v6.6L265.4,8V44.9z"/>
	<path d="M282.8,45.6l4.4-0.7V8.7h-7l-0.7,5.2h-6.6V0.6h37.6v13.3h-6.6l-0.7-5.2h-7v36.1l4.4,0.7v6.6h-17.7V45.6z"/>
	<path d="M335.9,36.8h-14.8l-2.5,8.1l4.4,0.7v6.6h-17.7v-6.6l4.4-0.7L321.5,8l-4.4-0.7V0.6h16.2l14,44.3l4.4,0.7v6.6H334v-6.6
		l4.4-0.7L335.9,36.8z M323.6,28.7h9.7l-4.9-15.5L323.6,28.7z"/>
	<path d="M368,44.1h15.5c0.2-1.3,0.6-3.2,0.7-4.4h6.6v12.5h-36.1v-6.6l4.4-0.7V8l-4.4-0.7V0.6h17.7v6.6L368,8V44.1z"/>
</g>
<g>
	<path d="M170.7,102.8v6.6h-11.1c-8.4,0-15.2-6.7-15.2-15.1V78.7c0-6.1,5-11,11.1-11h15.2v10.1h-5.4l-0.6-3.6h-8.6
		c-2.4,0-4.5,2-4.5,4.5v15.8c0,4.6,3.9,8.4,8.6,8.4H170.7z"/>
	<path d="M183.8,90.9v12.5l3.6,0.6v5.4h-14.3V104l3.6-0.6V73.6l-3.6-0.6v-5.4h19.3c6.5,0,11.7,5.2,11.7,11.6c0,4.8-3,9.2-7.5,11
		c1,0.8,1.6,1.7,2.1,3.2l3.8,10l4,0.6v5.4H197l-4.5-13.1c-1.4-4.2-5-5.4-6.6-5.4H183.8z M197,78.7c0-2.5-2-4.5-4.5-4.5h-8.6v10.1
		h8.6c2.5,0,4.5-2,4.5-4.5V78.7z"/>
	<path d="M208.9,67.6h29.2v10.1h-5.4l-0.6-3.6h-12.5v9.5h10.1l0.6-2.4h5.4v12.5h-5.4l-0.6-3.6h-10.1v12.5h12.5l0.6-4.2h5.4v10.7
		h-29.2V104l3.6-0.6V73.6l-3.6-0.6V67.6z"/>
	<path d="M265.3,96.9h-12l-2,6.6l3.6,0.6v5.4h-14.3V104l3.6-0.6l9.5-29.8L250,73v-5.4h13.1l11.3,35.8l3.6,0.6v5.4h-14.3V104l3.6-0.6
		L265.3,96.9z M255.4,90.3h7.9l-3.9-12.5L255.4,90.3z"/>
	<path d="M281.4,104l3.6-0.6V74.2h-5.7l-0.6,4.2h-5.4V67.6h30.4v10.7h-5.4l-0.6-4.2h-5.7v29.2l3.6,0.6v5.4h-14.3V104z"/>
	<path d="M316.9,103.4l3.6,0.6v5.4h-14.3V104l3.6-0.6V73.6l-3.6-0.6v-5.4h14.3V73l-3.6,0.6V103.4z"/>
	<path d="M349.1,73.6l-3.6-0.6v-5.4h14.3V73l-3.6,0.6l-11.3,35.8h-7.2l-11.3-35.8l-3.6-0.6v-5.4h14.3V73l-3.6,0.6l7.8,25.1
		L349.1,73.6z"/>
	<path d="M362.2,67.6h29.2v10.1H386l-0.6-3.6h-12.5v9.5h10.1l0.6-2.4h5.4v12.5h-5.4l-0.6-3.6h-10.1v12.5h12.5l0.6-4.2h5.4v10.7
		h-29.2V104l3.6-0.6V73.6l-3.6-0.6V67.6z"/>
</g>
<g>
	<polygon fill="none" points="69.9,53.7 69.8,53.7 69.8,53.8 	"/>
	<polygon fill="none" points="69.9,53.7 69.8,53.8 69.8,54.5 70.6,54.5 70.6,54.3 	"/>
	<polygon fill="none" points="70.6,53.1 69.9,53.7 70.6,54.3 	"/>
	<polygon points="70.6,54.3 70.6,54.5 70.9,54.5 	"/>
	<polygon points="68.9,54.5 69.8,54.5 69.8,53.8 	"/>
	<g>
		<path fill="#191916" d="M69,53.7V28.6C69,20,65.1,12.3,59,7L34.7,26.8L69,53.7z"/>
		<path d="M59,7c-5.1-4.4-11.8-7-19.1-7H0.4l34.3,26.8L59,7z"/>
		<polygon fill="#333333" points="69,53.8 69,53.7 34.7,26.8 0,55 67.9,55 		"/>
		<polygon fill="#262625" points="0.4,0 0,0 0,26.3 0,55 34.7,26.8 		"/>
		<polygon fill="#444444" points="67.9,55 0,55 0,55.3 32.9,82.1 		"/>
		<polygon fill="#4C4C4C" points="0,55.3 0,91.5 0,107.5 32.9,82.1 		"/>
		<path fill="#60605F" d="M69,69.3V55h-1.1l-35,27.1l21.8,17.7C63.4,92.5,69,81.5,69,69.3z"/>
		<path fill="#555555" d="M0,107.5v1.5h29.3c9.7,0,18.5-3.5,25.4-9.2L32.9,82.1L0,107.5z"/>
	</g>
	<g>
		<polygon fill="#EF3050" points="136.4,0 102.2,27 136.7,55 137,55 137,26.3 137,0 		"/>
		<polygon fill="#E0273D" points="136.7,55 102.2,27 69,53.1 69,54.3 68.9,55 69,55 		"/>
		<path fill="#FF2252" d="M136.4,0H97.5C90,0,83.2,2.8,78.2,7.5l24,19.5L136.4,0z"/>
		<path fill="#EF183D" d="M78.2,7.5C72.5,12.7,69,20.2,69,28.6v24.6L102.2,27L78.2,7.5z"/>
		<g>
			<polygon fill="#9B2337" points="103.7,82.1 137,108.1 137,91.5 137,55 			"/>
			<polygon fill="#B21B2D" points="136.7,55 69,55 69,55.1 103.7,82.1 137,55 			"/>
		</g>
		<path fill="#AD212B" d="M82.5,99.4c6.8,6,15.7,9.6,25.6,9.6H137v-0.9l-33.3-26L82.5,99.4z"/>
		<path fill="#931C25" d="M69,55.1v14.2c0,12,5.2,22.7,13.5,30l21.2-17.2L69,55.1z"/>
	</g>
	<polygon fill="#C1272D" points="70.9,55 71,55.1 71,55 	"/>
</g>
</svg>
