<?xml version="1.0" encoding="utf-8"?>
<!-- Generator: Adobe Illustrator 18.0.0, SVG Export Plug-In . SVG Version: 6.00 Build 0)  -->
<!DOCTYPE svg PUBLIC "-//W3C//DTD SVG 1.1//EN" "http://www.w3.org/Graphics/SVG/1.1/DTD/svg11.dtd">
<svg version="1.1" id="Layer_1" xmlns="http://www.w3.org/2000/svg" xmlns:xlink="http://www.w3.org/1999/xlink" x="0px" y="0px"
	 viewBox="0 6.9 100 83" enable-background="new 0 6.9 100 83" xml:space="preserve">
<g>
	<path fill="#FFFFFF" d="M1.8,48.5C1.8,48.5,1.8,48.5,1.8,48.5c0,0.6,0.2,1.2,0.7,1.5l26.7,19.1c0.6,0.4,1.2,0.5,1.8,0.1
		c0.6-0.3,0.9-1,0.9-1.6v-9.1H73c1,0,2-0.7,2-1.7V40.3c0-1-1-1.7-2-1.7H32.1l0-9c0-0.7-0.4-1.4-1-1.7c-0.6-0.3-1.3-0.3-1.9,0.1
		L2.5,47C2,47.4,1.8,47.9,1.8,48.5z"/>
	<polyline fill="none" stroke="#FFFFFF" stroke-width="3" stroke-miterlimit="10" points="40.2,34.9 40.2,13.4 93.1,13.4 93.1,83.1 
		40.2,83.1 40.2,62.4 	"/>
</g>
</svg>
